# xmcd CD database file
#
# Track frame offsets:
#	150
#	9800
#	39737
#	77620
#	108482
#	142420
#	166795
#	184420
#	228087
#	242477
#
# Disc length: 3705 seconds
#
# Revision: 0
# Processed by: cddbd v1.5.1PL0 Copyright (c) Steve Scherf et al.
# Submitted via: cdripper 1.0.7
#
DISCID=760e770a
DTITLE=Various Artist - Little Sonny: Blues with a Feeling
DYEAR=1994
DGENRE=Blues
TTITLE0=The Creeper Returns
TTITLE1=They Want Money
TTITLE2=A Woman Named Trouble
TTITLE3=Goin' Down Slow
TTITLE4=Hot Potatoes
TTITLE5=Honest I Do
TTITLE6=Blues With a Feeling
TTITLE7=Sad Funk
TTITLE8=Comments by John Sinclair
TTITLE9=Comments by Little Sonny
EXTD=YEAR: 1994
EXTT0=
EXTT1=
EXTT2=
EXTT3=
EXTT4=
EXTT5=
EXTT6=
EXTT7=
EXTT8=
EXTT9=
PLAYORDER=
